HIERARCHY
ROOT hip
{
  OFFSET 0 0 0
  CHANNELS 6 Xposition Yposition Zposition Zrotation Yrotation Xrotation
  JOINT abdomen
  {
    OFFSET 0 20.6881 -0.73152
    CHANNELS 3 Zrotation Xrotation Yrotation
    JOINT chest
    {
      OFFSET 0 11.7043 -0.48768
      CHANNELS 3 Zrotation Xrotation Yrotation
      JOINT neck
      {
        OFFSET 0 22.1894 -2.19456
        CHANNELS 3 Zrotation Xrotation Yrotation
        JOINT head
        {
          OFFSET -0.24384 7.07133 1.2192
          CHANNELS 3 Zrotation Xrotation Yrotation
          JOINT leftEye
          {
            OFFSET 4.14528 8.04674 8.04672
            CHANNELS 3 Zrotation Xrotation Yrotation
            End Site
            {
              OFFSET 1 0 0
            }
          }
          JOINT rightEye
          {
            OFFSET -3.6576 8.04674 8.04672
            CHANNELS 3 Zrotation Xrotation Yrotation
            End Site
            {
              OFFSET 1 0 0
            }
          }
        }
      }
      JOINT rCollar
      {
        OFFSET -2.68224 19.2634 -4.8768
        CHANNELS 3 Zrotation Xrotation Yrotation
        JOINT rShldr
        {
          OFFSET -8.77824 -1.95073 1.46304
          CHANNELS 3 Zrotation Xrotation Yrotation
          JOINT rForeArm
          {
            OFFSET -28.1742 -1.7115 0.48768
            CHANNELS 3 Zrotation Xrotation Yrotation
            JOINT rHand
            {
              OFFSET -22.5879 0.773209 7.07136
              CHANNELS 3 Zrotation Xrotation Yrotation
              JOINT rThumb1
              {
                OFFSET -1.2192 -0.487915 3.41376
                CHANNELS 3 Zrotation Xrotation Yrotation
                JOINT rThumb2
                {
                  OFFSET -3.37035 -0.52449 3.41376
                  CHANNELS 3 Zrotation Xrotation Yrotation
                  End Site
                  {
                    OFFSET -1.78271 -1.18214 1.43049
                  }
                }
              }
              JOINT rIndex1
              {
                OFFSET -7.75947 0.938293 5.60832
                CHANNELS 3 Zrotation Xrotation Yrotation
                JOINT rIndex2
                {
                  OFFSET -2.54057 -0.884171 1.56538
                  CHANNELS 3 Zrotation Xrotation Yrotation
                  End Site
                  {
                    OFFSET -1.62519 -0.234802 1.16502
                  }
                }
              }
              JOINT rMid1
              {
                OFFSET -8.24714 1.18213 3.41376
                CHANNELS 3 Zrotation Xrotation Yrotation
                JOINT rMid2
                {
                  OFFSET -3.10165 -0.590103 1.0647
                  CHANNELS 3 Zrotation Xrotation Yrotation
                  End Site
                  {
                    OFFSET -2.48547 -0.328903 0.83742
                  }
                }
              }
              JOINT rRing1
              {
                OFFSET -8.82822 0.546677 1.51678
                CHANNELS 3 Zrotation Xrotation Yrotation
                JOINT rRing2
                {
                  OFFSET -2.60934 -0.819778 -0.0198488
                  CHANNELS 3 Zrotation Xrotation Yrotation
                  End Site
                  {
                    OFFSET -2.33842 -0.294052 0.168128
                  }
                }
              }
              JOINT rPinky1
              {
                OFFSET -8.27202 -0.0477905 -0.4584
                CHANNELS 3 Zrotation Xrotation Yrotation
                JOINT rPinky2
                {
                  OFFSET -1.82734 -0.647385 -0.700984
                  CHANNELS 3 Zrotation Xrotation Yrotation
                  End Site
                  {
                    OFFSET -1.69225 -0.51767 -0.607171
                  }
                }
              }
            }
          }
        }
      }
      JOINT lCollar
      {
        OFFSET 2.68224 19.2634 -4.8768
        CHANNELS 3 Zrotation Xrotation Yrotation
        JOINT lShldr
        {
          OFFSET 8.77824 -1.95073 1.46304
          CHANNELS 3 Zrotation Xrotation Yrotation
          JOINT lForeArm
          {
            OFFSET 28.1742 -1.7115 0.48768
            CHANNELS 3 Zrotation Xrotation Yrotation
            JOINT lHand
            {
              OFFSET 22.5879 0.773209 7.07136
              CHANNELS 3 Zrotation Xrotation Yrotation
              JOINT lThumb1
              {
                OFFSET 1.2192 -0.487915 3.41376
                CHANNELS 3 Zrotation Xrotation Yrotation
                JOINT lThumb2
                {
                  OFFSET 3.37035 -0.52449 3.41376
                  CHANNELS 3 Zrotation Xrotation Yrotation
                  End Site
                  {
                    OFFSET 1.78271 -1.18214 1.43049
                  }
                }
              }
              JOINT lIndex1
              {
                OFFSET 7.75947 0.938293 5.60832
                CHANNELS 3 Zrotation Xrotation Yrotation
                JOINT lIndex2
                {
                  OFFSET 2.54057 -0.884171 1.56538
                  CHANNELS 3 Zrotation Xrotation Yrotation
                  End Site
                  {
                    OFFSET 1.62519 -0.234802 1.16502
                  }
                }
              }
              JOINT lMid1
              {
                OFFSET 8.24714 1.18213 3.41376
                CHANNELS 3 Zrotation Xrotation Yrotation
                JOINT lMid2
                {
                  OFFSET 3.10165 -0.590103 1.0647
                  CHANNELS 3 Zrotation Xrotation Yrotation
                  End Site
                  {
                    OFFSET 2.48547 -0.328903 0.83742
                  }
                }
              }
              JOINT lRing1
              {
                OFFSET 8.82822 0.546677 1.51678
                CHANNELS 3 Zrotation Xrotation Yrotation
                JOINT lRing2
                {
                  OFFSET 2.60934 -0.819778 -0.0198488
                  CHANNELS 3 Zrotation Xrotation Yrotation
                  End Site
                  {
                    OFFSET 2.33842 -0.294052 0.168128
                  }
                }
              }
              JOINT lPinky1
              {
                OFFSET 8.27202 -0.0477905 -0.4584
                CHANNELS 3 Zrotation Xrotation Yrotation
                JOINT lPinky2
                {
                  OFFSET 1.82734 -0.647385 -0.700984
                  CHANNELS 3 Zrotation Xrotation Yrotation
                  End Site
                  {
                    OFFSET 1.69225 -0.51767 -0.607171
                  }
                }
              }
            }
          }
        }
      }
    }
  }
  JOINT rButtock
  {
    OFFSET -8.77824 4.35084 1.2192
    CHANNELS 3 Zrotation Xrotation Yrotation
    JOINT rThigh
    {
      OFFSET 0 -1.70687 -2.19456
      CHANNELS 3 Zrotation Xrotation Yrotation
      JOINT rShin
      {
        OFFSET 0 -36.8199 0.73152
        CHANNELS 3 Zrotation Xrotation Yrotation
        JOINT rFoot
        {
          OFFSET 0.73152 -45.1104 -5.12064
          CHANNELS 3 Zrotation Xrotation Yrotation
          End Site
          {
            OFFSET -1.1221 -3.69964 12.103
          }
        }
      }
    }
  }
  JOINT lButtock
  {
    OFFSET 8.77824 4.35084 1.2192
    CHANNELS 3 Zrotation Xrotation Yrotation
    JOINT lThigh
    {
      OFFSET 0 -1.70687 -2.19456
      CHANNELS 3 Zrotation Xrotation Yrotation
      JOINT lShin
      {
        OFFSET 0 -36.8199 0.73152
        CHANNELS 3 Zrotation Xrotation Yrotation
        JOINT lFoot
        {
          OFFSET -0.73152 -45.1104 -5.12064
          CHANNELS 3 Zrotation Xrotation Yrotation
          End Site
          {
            OFFSET 1.1221 -3.69964 12.103
          }
        }
      }
    }
  }
}
MOTION
Frames:	7
Frame Time:	0.03333
27.029700000000002 69.7042 -3.4718 -140.058801 -76.375287 145.916542 2.20842 12.840949 169.038757 -0.59986 3.285789 -159.236592 11.996693 20.582502 79.733277 -38.086872 0.198862 -44.532252 -0.000231 0.0 -0.001864 -0.000325 0.0 -0.004961 -21.634811 52.061854 23.807979 29.378964 -2.384411 54.742254 176.548295 63.285808 88.909383 -175.525758 -0.907687 142.571297 -21.224979 18.698267 6.65861 -42.930723 19.145522 45.105425 -129.564595 16.774514 108.777421 -104.251154 52.149014 80.661938 20.658562 -56.581891 -0.477324 89.311247 -78.391172 60.604296 -145.116718 -0.074795 -179.105226 11.26596 14.551823 -7.287935 -115.448992 -38.085318 -113.432415 -38.869533 -48.313147 -40.361433 144.763044 35.958651 -149.306984 77.683124 -16.01725 50.680788 -79.845718 53.450836 153.353495 167.181955 27.800867 -138.008557 -12.075036 -12.046452 0.591996 106.684464 15.962003 -95.242077 112.388816 31.826752 -95.103588 -179.881295 -37.33183 -113.343531 156.677664 5.029502 -141.070166 5.337032 21.840352 -4.994482 145.122028 0.608692 179.319963 -11.090092 12.50805 7.515305 152.166702 37.202494 147.56018 167.197525 64.719825 145.59554 179.998333 75.749372 0.000474 -171.857838 47.179781 169.643446 55.703383 -64.3096 163.350771 -58.804301 -55.54832 25.113466 179.997132 75.749372 0.001408 -173.352592 11.034084 150.832998 -5.004792 -35.069256 -125.51485 90.534141 -69.332128 -25.945718
29.120400000000004 69.9064 -3.8672 -129.759425 -78.815977 136.079739 2.455508 17.992775 13.954638 -2.074584 -8.022751 -4.973253 12.627865 22.483634 90.613041 -40.037218 7.542619 -52.223043 -0.000899 -0.0 0.006897 -0.001151 0.0 -0.0011 -148.299765 27.351965 153.171597 137.150174 -37.978398 165.83924 172.553554 31.946855 88.203522 -173.897714 4.470275 141.901592 26.171974 -25.039044 1.887714 -1.334751 -16.502141 -18.076906 -100.303119 37.939758 84.707675 -0.892555 11.855723 -3.571224 1.889414 -5.659507 -0.983016 -167.775414 -18.670503 144.267954 -145.121918 1.82464 -179.702472 -157.323919 31.776374 177.168608 1.078172 2.885013 0.990814 -41.533673 -50.445733 -41.727496 78.426727 68.391894 -81.503513 75.506473 -61.593284 4.316279 95.265718 44.64436 -19.060346 -163.573918 -51.878143 -138.219263 170.091649 -7.775708 -89.940989 -148.071486 -44.059987 -97.347484 147.618467 -10.31051 -119.721426 174.187939 -37.903999 -116.864258 8.145634 20.325187 -5.439103 -29.916223 -60.703369 -6.756308 0.021446 -1.698174 0.53329 156.436703 -35.629004 -176.07086 12.95232 -24.963142 12.314588 146.986246 12.124236 143.682714 0.002405 3.5e-05 0.00077 5.591993 -27.121913 17.218068 35.667357 66.993176 41.841205 -179.984998 28.79158 110.607522 -0.003898 0.001366 -0.001181 13.069506 -63.887525 55.38798 39.950973 15.986334 88.858178 -79.895095 -15.934835 173.516065
31.0006 69.92869999999999 -4.2136 -115.905414 -80.837923 122.766671 2.522563 13.864873 159.042745 -1.75074 3.597814 -150.598717 -9.156333 22.992462 -71.788167 43.34855 1.237593 108.674098 0.000504 -0.0 -0.005761 0.000802 0.0 0.00229 1.251407 -8.26929 -1.745877 -109.523821 10.979717 155.762876 -174.633125 -21.920672 -118.240045 -8.106381 -1.347037 -2.699966 -117.485218 31.958928 69.546452 21.037664 -35.643274 26.029415 -1.355376 2.167322 0.783395 176.541049 -39.591103 103.904538 -164.739871 -19.615283 144.761996 -167.720741 -18.067884 143.854726 -145.120797 0.555167 -179.302127 12.095866 42.822271 -4.102683 -19.464109 -32.695451 -18.652801 -150.572238 25.019664 -146.26334 158.936852 -37.710099 -168.340271 107.501632 13.514345 128.756618 -164.345847 73.375531 -99.631361 176.054522 -0.26778 -142.600415 -40.006996 -35.183181 -7.156597 40.372891 29.69221 -15.849663 -64.198621 -71.583885 -18.767757 33.730125 48.443939 -27.018238 7.790675 19.588202 -5.173642 62.68229 63.388103 -55.645786 145.121104 0.257745 179.208128 -11.958394 31.467188 5.436106 24.500241 -37.266439 23.580976 -5.353613 6.226014 -1.505187 -179.997501 75.749423 -0.001613 -173.699291 44.817947 158.554375 60.028729 -59.149801 162.566526 99.395746 26.503506 2.626264 179.998149 75.749423 0.001771 -173.494303 7.491219 113.508667 39.804597 -17.104924 119.724894 -87.430781 52.88337 166.107608
32.6876 69.7783 -4.5196 -95.655445 -82.099662 102.843015 5.012755 18.717926 -28.788357 2.789156 -8.205633 36.201336 11.737398 27.502876 121.637062 -38.459122 28.220375 -75.039582 0.000324 0.0 0.002679 0.000275 -0.0 -0.001594 4.020713 -38.284798 -7.375222 -114.62593 -1.613103 176.367896 6.887258 26.306222 -97.806705 -176.568808 -2.556117 142.80058 -177.300029 -14.893231 89.618951 -178.757123 -15.029369 96.984121 -176.228795 -55.469465 118.703459 -162.250754 -24.229278 118.212643 11.593073 -36.061787 -3.245222 -157.366479 12.379969 140.607418 0.004553 0.991288 0.311922 -8.519737 64.528479 21.185422 -161.177155 69.253005 -151.083649 14.127917 39.20865 6.31405 -0.085663 -0.518538 0.114602 -101.70538 4.844762 -90.280256 -13.155825 73.32818 -61.044931 9.996667 4.572497 1.963838 -1.151716 -1.140852 0.16587 143.962228 -52.067003 -121.271493 -20.299954 -36.277591 5.966694 3.244805 24.299747 -5.467913 3.8457 10.466881 -2.363979 5.219263 21.983141 -4.615465 -0.000273 -0.083723 0.02524 -11.422187 -22.611379 2.727524 132.505695 -18.071473 130.022724 -15.910143 39.387879 -5.937624 -179.993961 75.749978 -0.004815 -173.543987 45.973219 -15.61975 -18.043746 72.92671 124.924505 149.732911 30.560086 141.270039 -0.000345 -0.000336 -0.00015 21.517398 -67.987535 84.386573 33.800381 16.322544 -94.353291 91.799689 30.888971 -24.222644
34.3074 69.6402 -4.8696 -75.973576 -82.285426 83.14471 1.956135 18.202321 67.376348 -6.157792 -4.924932 -60.100339 12.125726 25.799924 112.238409 -39.862553 22.770686 -67.084437 -0.002947 0.0 -0.000624 -0.002947 0.0 -0.000624 1.698461 -11.671758 -2.420514 53.179796 9.527248 27.559838 0.392667 3.751598 63.726509 -7.71547 0.795004 -2.368132 -2.960132 2.89598 0.527856 1.621246 -1.289495 0.658172 173.185266 -63.812632 112.474905 7.973348 13.883698 -5.517219 -140.843181 35.94814 128.944841 -78.726095 64.08636 71.04437 -145.114519 -0.239518 -179.05355 -151.018819 -32.016915 -173.810543 -141.288521 0.802905 -138.309102 -97.056164 -49.171115 -96.284117 159.148223 -53.359353 -171.641487 93.848356 21.313615 142.397646 28.701731 -65.851136 -46.070363 5.051664 -12.816239 3.713791 -0.665996 -0.658444 0.098741 -19.149618 -31.092514 14.308468 155.480311 -24.829377 -122.197814 -1.942117 18.989242 5.636175 150.91505 19.051273 -137.122066 -1.460167 5.286448 -1.128301 1.642709 -22.312768 7.448106 -5.815102 43.585904 -7.857776 140.686104 -0.768141 137.752087 154.779066 35.097101 145.82185 -0.020972 0.000765 -0.017324 4.207605 -30.320958 8.642114 3.447392 70.277857 -61.078917 76.164457 -0.496939 16.595892 179.996 75.74978 0.001961 -168.135322 3.816085 -82.492137 -57.817882 -1.177896 -86.970509 126.639178 35.945115 169.607673
35.9125 69.4452 -5.1871 -58.465883 -81.300609 65.694963 3.012212 16.110073 129.774649 -5.315878 1.950181 -123.156704 -9.596919 23.335604 -76.745516 43.615071 3.411391 113.900089 -0.003118 0.0 -9.5e-05 -0.003155 -0.0 0.00385 3.069726 -24.442146 -4.81942 58.67818 5.483155 20.622052 -147.455041 -10.800367 89.530921 170.445488 -37.002714 141.849357 32.634863 -30.143807 4.044913 0.419146 -31.645481 -25.498757 -146.742993 -8.743877 119.337788 12.009669 -3.407252 -10.116459 4.478974 -13.801771 -2.079124 -164.342615 -7.899875 143.648635 -0.000425 2.82527 0.887489 -156.374399 -14.473658 173.570409 -149.35878 26.452256 -145.394395 -144.064289 1.352632 -138.98183 15.310713 44.773382 -17.220885 -92.713257 -0.053565 -140.897249 -179.255151 -62.709798 -59.783511 175.609529 -2.429273 -142.704542 148.993556 12.385343 -85.81882 168.902723 -14.988267 -80.532467 100.429263 37.889658 -84.816823 176.660726 -31.024627 -113.878552 -12.052455 -37.362594 3.214722 55.473264 62.167071 -48.606875 0.039669 -2.682885 0.844261 -8.935994 17.349539 -2.374446 45.097123 -48.11455 43.875629 138.685817 -9.470984 136.707628 -179.996952 75.750863 -0.002105 -174.98562 43.987499 -21.292528 -50.487351 62.71245 -23.501847 151.227822 10.468643 -22.847023 -179.996952 75.750863 -0.002105 -168.751392 2.049939 79.789771 60.460086 23.301415 146.537823 -97.124653 41.496063 169.202837
37.4545 69.1751 -5.4113 -46.372064 -79.858205 53.910176 3.412848 17.078289 105.203163 -6.821157 -0.526097 -99.794005 -7.46322 29.473922 -117.201361 40.994334 29.734258 145.865962 0.000251 -0.0 -0.000968 0.000251 -0.0 -0.000968 -147.362387 29.901374 152.134879 -41.893432 5.273071 -5.756852 -178.291003 -18.853635 -118.207792 -8.948267 9.477911 -1.27992 48.613659 -40.023335 11.504764 -53.937587 35.220081 26.34979 -148.369988 -11.669239 120.037208 177.125631 -49.165222 112.294444 8.826739 -27.719811 -3.148961 -0.585066 10.476669 1.735646 -145.110398 -0.791993 -178.879237 -151.672456 -28.581757 -174.599034 -0.451912 -1.163818 -0.417475 -64.500141 -54.838915 -64.373981 128.751077 -84.967917 151.496215 66.638764 -2.552369 175.687345 -165.964022 -87.756874 111.588038 8.963596 0.389473 2.522551 -179.699592 -17.752089 -89.22062 152.464197 6.825041 -82.50437 -7.371696 -12.806101 3.565769 177.919524 -36.277109 -105.979945 13.353584 29.822516 -9.568365 168.292998 -20.619184 -144.281811 145.114821 -0.404502 179.000392 -12.063583 50.815623 3.019719 -3.380505 9.555661 -3.075583 126.489587 -32.23133 124.758326 0.000162 2.3e-05 7.8e-05 3.308652 -33.181331 3.172949 -1.105044 75.05785 -86.181561 -35.611522 -62.281601 35.373465 0.000162 2.3e-05 7.8e-05 42.234173 -69.884366 43.518433 -5.887845 69.250351 108.674675 -136.892569 -64.891996 111.863142
